<svg width="100" height="100" viewBox="0 0 100 100" fill="none" xmlns="http://www.w3.org/2000/svg">
<path d="M0 50C0 22.3858 22.3858 0 50 0V0C77.6142 0 100 22.3858 100 50V50C100 77.6142 77.6142 100 50 100V100C22.3858 100 0 77.6142 0 50V50Z" fill="#EFF3F5"/>
<rect width="32" height="32" transform="translate(34 34)" fill="#EFF3F5"/>
<g clip-path="url(#clip0)">
<path d="M58.6 42.5C58.6 45.45 57.1 48.05 54.85 49.55C53.5 50.45 51.85 51 50.1 51C48.35 51 46.7 50.45 45.35 49.55C43.1 48 41.6 45.45 41.6 42.5C41.6 37.8 45.4 34 50.1 34C54.8 34 58.6 37.8 58.6 42.5Z" fill="#A0A7AC"/>
<path d="M63.95 64.0078V64.8326C63.95 65.4148 63.5 65.9 62.95 65.9H37.25C36.7 65.9 36.25 65.4148 36.25 64.8326V64.0078C36.25 58.2828 40.7 53.6251 46.15 53.6251H54.1C59.5 53.6251 63.95 58.2828 63.95 64.0078Z" fill="#A0A7AC"/>
</g>
<defs>
<clipPath id="clip0">
<rect width="27.7" height="31.9" fill="white" transform="translate(36.25 34)"/>
</clipPath>
</defs>
</svg>
